<svg xmlns="http://www.w3.org/2000/svg" width="13" height="13" fill="none" viewBox="0 0 13 13"><g fill="#0A1A5D" clip-path="url(#clip0)"><path d="M5.73 11.313a5.535 5.535 0 01-5.529-5.53A5.535 5.535 0 015.731.256c3.048 0 5.528 2.48 5.528 5.529a5.535 5.535 0 01-5.529 5.529zm0-9.479a3.954 3.954 0 00-3.95 3.95 3.954 3.954 0 003.95 3.949 3.954 3.954 0 003.95-3.95 3.954 3.954 0 00-3.95-3.949zM12.608 11.544l-1.89-1.89c-.325.418-.7.792-1.117 1.117l1.89 1.89a.788.788 0 001.117 0 .79.79 0 000-1.117z"></path></g><defs><clipPath id="clip0"><path fill="#fff" d="M.201.255H12.84v12.638H.201V.255z"></path></clipPath></defs></svg>